<?xml version="1.0" encoding="UTF-8"?>
<svg id="Layer_2" data-name="Layer 2" xmlns="http://www.w3.org/2000/svg" viewBox="0 0 893.74 165.57">
  <defs>
    <style>
      .cls-1 {
        fill: #541f87;
      }
    </style>
  </defs>
  <g id="Layer_1-2" data-name="Layer 1">
    <g>
      <g>
        <g>
          <path class="cls-1" d="M241.95,125.63c-4.8-4.5-7.2-11.55-7.2-21.15,0-8.07,1.58-16.96,4.74-26.68,3.16-9.71,8.31-18.1,15.44-25.18,7.14-7.08,16.2-10.62,27.2-10.62,12.87,0,19.31,5.62,19.31,16.85,0,6.55-1.87,12.58-5.62,18.08-3.75,5.5-8.72,9.92-14.92,13.25-6.2,3.33-12.81,5.24-19.83,5.7-.24,3.51-.35,5.85-.35,7.02,0,5.73,.99,9.62,2.98,11.67,1.99,2.05,5.2,3.07,9.65,3.07,6.32,0,11.73-1.46,16.23-4.39,4.5-2.92,9.45-7.37,14.83-13.34h5.97c-12.99,21.65-29.08,32.47-48.26,32.47-8.66,0-15.39-2.25-20.18-6.76Zm32.91-42.73c3.92-2.81,7.08-6.38,9.48-10.71,2.4-4.33,3.6-8.89,3.6-13.69s-1.46-7.19-4.39-7.19c-4.21,0-8.34,3.69-12.37,11.06-4.04,7.37-6.93,15.74-8.69,25.1,4.33-.23,8.45-1.76,12.37-4.56Z"/>
          <path class="cls-1" d="M308.11,125.63c-4.8-4.5-7.2-11.55-7.2-21.15,0-8.07,1.58-16.96,4.74-26.68,3.16-9.71,8.31-18.1,15.44-25.18,7.14-7.08,16.2-10.62,27.2-10.62,12.87,0,19.31,5.62,19.31,16.85,0,6.55-1.87,12.58-5.62,18.08-3.75,5.5-8.72,9.92-14.92,13.25-6.2,3.33-12.81,5.24-19.83,5.7-.24,2.57-.35,4.33-.35,5.27,0,9.71,3.63,14.57,10.88,14.57,3.27,0,6.78-.88,10.53-2.63,3.74-1.76,7.14-3.98,10.18-6.67-3.16,17.32-13.28,25.97-30.36,25.97-8.54,0-15.21-2.25-20.01-6.76Zm32.91-42.56c3.92-2.81,7.08-6.41,9.48-10.79,2.4-4.39,3.6-8.98,3.6-13.78s-1.46-7.19-4.39-7.19c-4.1,0-8.16,3.71-12.2,11.14-4.04,7.43-7.05,15.77-9.04,25.01,4.44-.12,8.63-1.58,12.55-4.39Zm71.34-30.01h-9.83c-3.28,0-5.7,.18-7.28,.53s-2.37,1.11-2.37,2.28c0,.24,.32,.5,.97,.79,.64,.29,.96,1.32,.96,3.07,0,3.04-.94,5.35-2.81,6.93-1.87,1.58-4.1,2.37-6.67,2.37-2.22,0-4.12-.67-5.7-2.02-1.58-1.34-2.37-3.25-2.37-5.7s.85-5.09,2.54-7.9c1.69-2.81,4.09-5.15,7.2-7.02,3.1-1.87,6.64-2.81,10.62-2.81h45.1l-43,74.24c.7,0,1.99,.12,3.86,.35,3.98,.47,7.14,.7,9.48,.7,5.03,0,7.78-1.17,8.25-3.51-1.05-.12-1.87-.5-2.46-1.14-.59-.64-.88-1.49-.88-2.55,0-1.87,.88-3.6,2.63-5.18s4.15-2.37,7.2-2.37c2.57,0,4.5,.76,5.79,2.28,1.29,1.52,1.93,3.57,1.93,6.14,0,2.81-.88,5.68-2.63,8.6-1.76,2.93-4.27,5.35-7.55,7.28-3.28,1.93-7.02,2.9-11.23,2.9h-46.51l44.75-78.27Z"/>
          <path class="cls-1" d="M447.63,125.63c-4.8-4.5-7.2-11.55-7.2-21.15,0-8.07,1.58-16.96,4.74-26.68,3.16-9.71,8.31-18.1,15.44-25.18,7.14-7.08,16.2-10.62,27.2-10.62,12.87,0,19.31,5.62,19.31,16.85,0,6.55-1.87,12.58-5.62,18.08-3.75,5.5-8.72,9.92-14.92,13.25-6.2,3.33-12.81,5.24-19.83,5.7-.24,3.51-.35,5.85-.35,7.02,0,5.73,.99,9.62,2.98,11.67,1.99,2.05,5.2,3.07,9.65,3.07,6.32,0,11.73-1.46,16.23-4.39,4.5-2.92,9.45-7.37,14.83-13.34h5.97c-12.99,21.65-29.07,32.47-48.26,32.47-8.66,0-15.39-2.25-20.18-6.76Zm32.91-42.73c3.92-2.81,7.08-6.38,9.48-10.71,2.4-4.33,3.6-8.89,3.6-13.69s-1.46-7.19-4.39-7.19c-4.21,0-8.34,3.69-12.37,11.06-4.04,7.37-6.93,15.74-8.69,25.1,4.33-.23,8.45-1.76,12.37-4.56Z"/>
          <path class="cls-1" d="M514.84,125.63c-4.79-4.5-7.19-11.55-7.19-21.15,0-8.07,1.58-16.96,4.74-26.68,3.16-9.71,8.31-18.1,15.44-25.18,7.14-7.08,16.2-10.62,27.2-10.62,12.87,0,19.3,5.62,19.3,16.85,0,6.55-1.87,12.58-5.62,18.08-3.75,5.5-8.72,9.92-14.92,13.25-6.2,3.33-12.81,5.24-19.83,5.7-.24,2.57-.35,4.33-.35,5.27,0,9.71,3.62,14.57,10.88,14.57,3.27,0,6.78-.88,10.53-2.63,3.74-1.76,7.13-3.98,10.18-6.67-3.16,17.32-13.28,25.97-30.36,25.97-8.54,0-15.21-2.25-20.01-6.76Zm32.91-42.56c3.92-2.81,7.08-6.41,9.48-10.79,2.4-4.39,3.6-8.98,3.6-13.78s-1.46-7.19-4.39-7.19c-4.1,0-8.16,3.71-12.2,11.14-4.04,7.43-7.05,15.77-9.04,25.01,4.45-.12,8.63-1.58,12.55-4.39Z"/>
        </g>
        <g>
          <path class="cls-1" d="M614.7,20.01l25.97-3.51-12.46,58.62c5.62-.47,10.79-2.92,15.53-7.37,4.74-4.44,8.45-9.94,11.14-16.5,2.69-6.55,4.04-12.99,4.04-19.31,0-7.02-1.82-12.75-5.44-17.2-3.63-4.44-9.07-6.67-16.32-6.67-14.28,0-25.42,3.75-33.43,11.23-8.01,7.49-12.02,17.96-12.02,31.41,0,4.33,.41,7.34,1.23,9.04,.82,1.7,1.23,2.66,1.23,2.9-6.32,0-11.03-1.32-14.13-3.95-3.1-2.63-4.65-6.99-4.65-13.07,0-7.49,3.07-14.77,9.21-21.85,6.14-7.08,14.01-12.81,23.6-17.2,9.59-4.39,19.19-6.58,28.78-6.58s16.96,1.58,23.17,4.74c6.2,3.16,10.79,7.34,13.78,12.55,2.98,5.21,4.47,10.97,4.47,17.29,0,7.61-2.08,15.04-6.23,22.29-4.15,7.26-10.09,13.19-17.81,17.81-7.72,4.62-16.61,6.93-26.68,6.93h-.88l-10.7,50.02h-25.27l23.87-111.62Z"/>
          <path class="cls-1" d="M678.67,127.41c-3.45-3.51-5.18-8.78-5.18-15.8,0-2.92,.47-6.73,1.4-11.41l18.78-87.93,25.97-3.51-20.18,94.77c-.47,1.76-.7,3.63-.7,5.62,0,2.34,.55,4.01,1.67,5,1.11,1,2.95,1.49,5.53,1.49,3.39,0,6.55-1.43,9.48-4.3,2.92-2.87,5.03-6.58,6.32-11.14h7.37c-4.33,12.64-9.89,21.21-16.67,25.71-6.79,4.51-13.51,6.76-20.18,6.76-5.62,0-10.15-1.76-13.6-5.27Z"/>
          <path class="cls-1" d="M726.14,125.83c-4.44-4.56-6.67-11.7-6.67-21.41,0-8.66,1.73-17.75,5.18-27.29,3.45-9.54,8.6-17.61,15.44-24.22,6.84-6.61,15.01-9.92,24.48-9.92,4.79,0,8.36,.82,10.7,2.46,2.34,1.64,3.51,3.8,3.51,6.49v1.23l1.93-9.3h25.27l-12.64,59.67c-.47,1.76-.7,3.63-.7,5.62,0,5.03,2.4,7.55,7.2,7.55,3.27,0,6.11-1.52,8.51-4.56,2.4-3.04,4.3-7.02,5.7-11.93h7.37c-4.33,12.64-9.68,21.21-16.06,25.71-6.38,4.51-12.78,6.76-19.22,6.76-4.91,0-8.86-1.37-11.85-4.12-2.98-2.75-4.77-6.76-5.35-12.02-3.39,4.8-7.17,8.69-11.32,11.67-4.15,2.98-9.1,4.47-14.83,4.47-6.67,0-12.23-2.28-16.67-6.84Zm36.77-14.3c2.87-2.75,4.83-6.52,5.88-11.32l8.42-39.66c0-1.52-.59-3.01-1.76-4.47-1.17-1.46-2.98-2.19-5.44-2.19-4.68,0-8.89,2.72-12.64,8.16-3.75,5.44-6.67,11.99-8.78,19.66-2.11,7.66-3.16,14.42-3.16,20.27s.85,9.59,2.54,11.23c1.69,1.64,3.77,2.46,6.23,2.46,2.92,0,5.82-1.37,8.69-4.12Z"/>
          <path class="cls-1" d="M860.92,127.06c-2.81-3.74-4.21-8.48-4.21-14.22,0-2.46,.29-5.23,.88-8.34,.58-3.1,1.2-6.11,1.84-9.04,.64-2.92,1.08-4.8,1.32-5.62,.93-4.09,1.81-8.13,2.63-12.11,.82-3.98,1.23-7.2,1.23-9.65,0-5.97-2.11-8.95-6.32-8.95-3.04,0-5.74,1.49-8.07,4.48-2.34,2.98-4.21,6.87-5.62,11.67l-11.93,56.33h-25.27l18.6-87.75h25.27l-1.93,9.13c5.85-6.55,12.69-9.83,20.53-9.83,5.97,0,10.71,1.64,14.22,4.91,3.51,3.28,5.27,8.25,5.27,14.92,0,3.39-.41,7.17-1.23,11.32-.82,4.15-1.99,9.21-3.51,15.18-.94,3.63-1.79,7.17-2.54,10.62-.76,3.45-1.14,6.17-1.14,8.16,0,2.34,.53,4.15,1.58,5.44,1.05,1.29,2.87,1.93,5.44,1.93,2.81,0,4.74-.35,5.79-1.05-.7,5.97-2.84,10.47-6.41,13.51-3.57,3.04-7.87,4.56-12.9,4.56-6.2,0-10.7-1.87-13.51-5.62Z"/>
        </g>
      </g>
      <path id="logo" class="cls-1" d="M114.26,8.82s-.04,0-.06,0c-.01,0-.02,0-.03,0H10.87C4.89,8.82,0,13.72,0,19.7s4.89,10.87,10.87,10.87H60.11c-4.52,4.32-8.52,9.18-11.91,14.47H29.67c-5.98,0-10.87,4.89-10.87,10.87s4.89,10.87,10.87,10.87h8.92c-1.75,6.51-2.7,13.34-2.7,20.4,0,7.59,1.1,14.93,3.12,21.87H10.87c-5.98,0-10.87,4.89-10.87,10.87s4.89,10.87,10.87,10.87H49.15c3.17,4.73,6.86,9.08,10.96,13.01H29.67c-5.98,0-10.87,4.89-10.87,10.87s4.89,10.87,10.87,10.87H114.17s.02,0,.03,0c.02,0,.04,0,.06,0,43.28,0,78.37-35.09,78.37-78.37S157.54,8.82,114.26,8.82Zm0,135c-31.27,0-56.63-25.35-56.63-56.63s25.35-56.63,56.63-56.63,56.63,25.35,56.63,56.63-25.35,56.63-56.63,56.63Zm24.66-31.17c-4.22,4.22-11.13,4.22-15.35,0l-17-17c-2.21-2.21-3.25-5.15-3.15-8.06,0-.13-.02-.25-.02-.38V53.07c0-5.97,4.89-10.86,10.86-10.86s10.86,4.89,10.86,10.86v30.42l13.81,13.81c4.22,4.22,4.22,11.13,0,15.35Z"/>
    </g>
  </g>
</svg>