<?xml version="1.0" encoding="UTF-8"?>
<svg id="Boards" xmlns="http://www.w3.org/2000/svg" xmlns:xlink="http://www.w3.org/1999/xlink" viewBox="0 0 974.5 408.05">
    <defs>
        <style>
      .cls-1 {
        fill: #f4f0f7;
      }

      .cls-2 {
        fill: #fff;
      }

      .cls-3 {
        fill: #73a559;
      }

      .cls-4 {
        fill: #7f7984;
      }

      .cls-5 {
        fill: #5d5860;
      }

      .cls-6 {
        filter: url(#drop-shadow-1);
      }
    </style>
        <filter id="drop-shadow-1" filterUnits="userSpaceOnUse">
            <feOffset dx="0" dy="0" />
            <feGaussianBlur result="blur" stdDeviation="5.03" />
            <feFlood flood-color="#000" flood-opacity=".15" />
            <feComposite in2="blur" operator="in" />
            <feComposite in="SourceGraphic" />
        </filter>
    </defs>
    <g id="board-1">
        <g id="board-bg">
            <rect class="cls-2" width="298.67" height="408.05" rx="9.99" ry="9.99" />
        </g>
        <g id="title">
            <rect class="cls-5" x="12.82" y="14.11" width="168.94" height="16.09" rx="4.05" ry="4.05" />
        </g>
        <g id="issues">
            <g id="issue-6">
                <rect id="issue-bg" class="cls-1" x="12.32" y="354.72" width="273.53" height="39.22" rx="4" ry="4" />
                <g id="issue-title">
                    <g id="id">
                        <rect class="cls-4" x="19.36" y="362.77" width="125.7" height="11.06" rx="2.1" ry="2.1" />
                    </g>
                    <g id="title-2" data-name="title">
                        <rect class="cls-4" x="19.36" y="377.85" width="33.19" height="8.04" rx="1.83" ry="1.83" />
                    </g>
                </g>
            </g>
            <g id="issue-5">
                <rect id="issue-bg-2" data-name="issue-bg" class="cls-1" x="12.32" y="303.32" width="273.53" height="39.22" rx="4" ry="4" />
                <g id="issue-title-2" data-name="issue-title">
                    <g id="id-2" data-name="id">
                        <rect class="cls-4" x="19.36" y="311.36" width="125.7" height="11.06" rx="2.1" ry="2.1" />
                    </g>
                    <g id="title-3" data-name="title">
                        <rect class="cls-4" x="19.36" y="326.45" width="33.19" height="8.04" rx="1.83" ry="1.83" />
                    </g>
                </g>
            </g>
            <g id="issue-4">
                <rect id="issue-bg-3" data-name="issue-bg" class="cls-1" x="12.82" y="251.91" width="273.53" height="39.22" rx="4" ry="4" />
                <g id="issue-title-3" data-name="issue-title">
                    <g id="id-3" data-name="id">
                        <rect class="cls-4" x="19.86" y="259.96" width="125.7" height="11.06" rx="2.1" ry="2.1" />
                    </g>
                    <g id="title-4" data-name="title">
                        <rect class="cls-4" x="19.86" y="275.04" width="33.19" height="8.04" rx="1.83" ry="1.83" />
                    </g>
                </g>
            </g>
            <g id="issue-3">
                <rect id="issue-bg-4" data-name="issue-bg" class="cls-1" x="12.32" y="200.51" width="273.53" height="39.22" rx="4" ry="4" />
                <g id="issue-title-4" data-name="issue-title">
                    <g id="id-4" data-name="id">
                        <rect class="cls-4" x="19.36" y="208.55" width="125.7" height="11.06" rx="2.1" ry="2.1" />
                    </g>
                    <g id="title-5" data-name="title">
                        <rect class="cls-4" x="19.36" y="223.64" width="33.19" height="8.04" rx="1.83" ry="1.83" />
                    </g>
                </g>
            </g>
            <g id="issue-2">
                <rect id="issue-bg-5" data-name="issue-bg" class="cls-1" x="12.32" y="97.7" width="273.53" height="39.22" rx="4" ry="4" />
                <g id="issue-title-5" data-name="issue-title">
                    <g id="id-5" data-name="id">
                        <rect class="cls-4" x="19.36" y="105.74" width="125.7" height="11.06" rx="2.1" ry="2.1" />
                    </g>
                    <g id="title-6" data-name="title">
                        <rect class="cls-4" x="19.36" y="120.82" width="33.19" height="8.04" rx="1.83" ry="1.83" />
                    </g>
                </g>
            </g>
            <g id="issue-1">
                <rect id="issue-bg-6" data-name="issue-bg" class="cls-1" x="12.82" y="46.29" width="273.53" height="39.22" rx="4" ry="4" />
                <g id="issue-title-6" data-name="issue-title">
                    <g id="id-6" data-name="id">
                        <rect class="cls-4" x="19.86" y="54.33" width="125.7" height="11.06" rx="2.1" ry="2.1" />
                    </g>
                    <g id="title-7" data-name="title">
                        <rect class="cls-4" x="19.86" y="69.42" width="33.19" height="8.04" rx="1.83" ry="1.83" />
                    </g>
                </g>
            </g>
        </g>
    </g>
    <g id="board-2">
        <g id="board-bg-2" data-name="board-bg">
            <rect class="cls-2" x="337.92" width="298.67" height="408.05" rx="9.99" ry="9.99" />
        </g>
        <g id="title-8" data-name="title">
            <rect class="cls-5" x="350.74" y="14.11" width="168.94" height="16.09" rx="4.05" ry="4.05" />
        </g>
        <g id="issues-2" data-name="issues">
            <g id="issue-6-2" data-name="issue-6">
                <rect id="issue-bg-7" data-name="issue-bg" class="cls-1" x="350.24" y="354.72" width="273.53" height="39.22" rx="4" ry="4" />
                <g id="issue-title-7" data-name="issue-title">
                    <g id="id-7" data-name="id">
                        <rect class="cls-4" x="357.28" y="362.77" width="125.7" height="11.06" rx="2.1" ry="2.1" />
                    </g>
                    <g id="title-9" data-name="title">
                        <rect class="cls-4" x="357.28" y="377.85" width="33.19" height="8.04" rx="1.83" ry="1.83" />
                    </g>
                </g>
            </g>
            <g id="issue-5-2" data-name="issue-5">
                <rect id="issue-bg-8" data-name="issue-bg" class="cls-1" x="350.24" y="303.32" width="273.53" height="39.22" rx="4" ry="4" />
                <g id="issue-title-8" data-name="issue-title">
                    <g id="id-8" data-name="id">
                        <rect class="cls-4" x="357.28" y="311.36" width="125.7" height="11.06" rx="2.1" ry="2.1" />
                    </g>
                    <g id="title-10" data-name="title">
                        <rect class="cls-4" x="357.28" y="326.45" width="33.19" height="8.04" rx="1.83" ry="1.83" />
                    </g>
                </g>
            </g>
            <g id="issue-4-2" data-name="issue-4">
                <rect id="issue-bg-9" data-name="issue-bg" class="cls-1" x="350.74" y="251.91" width="273.53" height="39.22" rx="4" ry="4" />
                <g id="issue-title-9" data-name="issue-title">
                    <g id="id-9" data-name="id">
                        <rect class="cls-4" x="357.78" y="259.96" width="125.7" height="11.06" rx="2.1" ry="2.1" />
                    </g>
                    <g id="title-11" data-name="title">
                        <rect class="cls-4" x="357.78" y="275.04" width="33.19" height="8.04" rx="1.83" ry="1.83" />
                    </g>
                </g>
            </g>
            <g id="issue-3-2" data-name="issue-3">
                <rect id="issue-bg-10" data-name="issue-bg" class="cls-1" x="350.24" y="200.51" width="273.53" height="39.22" rx="4" ry="4" />
                <g id="issue-title-10" data-name="issue-title">
                    <g id="id-10" data-name="id">
                        <rect class="cls-4" x="357.28" y="208.55" width="125.7" height="11.06" rx="2.1" ry="2.1" />
                    </g>
                    <g id="title-12" data-name="title">
                        <rect class="cls-4" x="357.28" y="223.64" width="33.19" height="8.04" rx="1.83" ry="1.83" />
                    </g>
                </g>
            </g>
            <g id="issue-move" class="cls-6">
                <rect id="issue-bg-11" data-name="issue-bg" class="cls-2" x="188.05" y="145.18" width="330.12" height="47.98" rx="4.86" ry="4.86" transform="translate(-5.04 10.94) rotate(-1.76)" />
                <g id="text">
                    <g id="issue-desc">
                        <rect class="cls-4" x="196.26" y="157.9" width="151.52" height="13.24" rx="2.52" ry="2.52" transform="translate(-4.93 8.44) rotate(-1.76)" />
                    </g>
                    <g id="issue-title-11" data-name="issue-title">
                        <rect class="cls-4" x="196.79" y="177.94" width="40.41" height="9.19" rx="2.16" ry="2.16" transform="translate(-5.51 6.76) rotate(-1.76)" />
                    </g>
                </g>
                <g id="icons">
                    <path class="cls-3" d="M491.19,158.86c-.38-.22-.86-.21-1.24,.02-.38,.23-.61,.64-.59,1.09l.28,8.98c.01,.44,.27,.84,.66,1.05,.39,.2,.87,.18,1.24-.06l7.21-4.72c.36-.23,.57-.64,.55-1.06s-.25-.81-.62-1.03l-7.48-4.26Z" />
                    <path class="cls-5" d="M476.79,159.54l-1.05,1.11,2.99,2.82,1.05-1.11c.54-.58,.51-1.48-.06-2.02l-.91-.86c-.58-.54-1.48-.51-2.02,.06h0Zm-1.54,1.64l-5.05,5.37c-.23,.24-.39,.53-.47,.85l-.71,2.71c-.05,.19,0,.39,.15,.53,.14,.13,.35,.18,.53,.12l2.66-.87c.31-.1,.6-.28,.82-.52l5.05-5.37-2.99-2.82Z" />
                    <path class="cls-5" d="M452.59,160.26l-.15,.32-2.14,.07c-.4,.01-.7,.34-.69,.74s.34,.7,.74,.69l8.57-.26c.4-.01,.7-.34,.69-.74s-.34-.7-.74-.69l-2.14,.07-.17-.31c-.13-.24-.38-.38-.65-.38l-2.69,.08c-.27,0-.51,.17-.63,.41Zm6.34,2.27l-8.57,.26,.71,7.55c.05,.56,.54,.99,1.1,.97l5.49-.17c.56-.02,1.02-.47,1.04-1.04l.24-7.58Z" />
                </g>
            </g>
            <g id="issue-2-2" data-name="issue-2">
                <rect id="issue-bg-12" data-name="issue-bg" class="cls-1" x="350.24" y="97.7" width="273.53" height="39.22" rx="4" ry="4" />
                <g id="issue-title-12" data-name="issue-title">
                    <g id="id-11" data-name="id">
                        <rect class="cls-4" x="357.28" y="105.74" width="125.7" height="11.06" rx="2.1" ry="2.1" />
                    </g>
                    <g id="title-13" data-name="title">
                        <rect class="cls-4" x="357.28" y="120.82" width="33.19" height="8.04" rx="1.83" ry="1.83" />
                    </g>
                </g>
            </g>
            <g id="issue-1-2" data-name="issue-1">
                <rect id="issue-bg-13" data-name="issue-bg" class="cls-1" x="350.74" y="46.29" width="273.53" height="39.22" rx="4" ry="4" />
                <g id="issue-title-13" data-name="issue-title">
                    <g id="id-12" data-name="id">
                        <rect class="cls-4" x="357.78" y="54.33" width="125.7" height="11.06" rx="2.1" ry="2.1" />
                    </g>
                    <g id="title-14" data-name="title">
                        <rect class="cls-4" x="357.78" y="69.42" width="33.19" height="8.04" rx="1.83" ry="1.83" />
                    </g>
                </g>
            </g>
        </g>
    </g>
    <g id="board-3">
        <g id="board-bg-3" data-name="board-bg">
            <rect class="cls-2" x="675.84" width="298.67" height="408.05" rx="9.99" ry="9.99" />
        </g>
        <g id="title-15" data-name="title">
            <rect class="cls-5" x="688.66" y="14.11" width="168.94" height="16.09" rx="4.05" ry="4.05" />
        </g>
        <g id="issues-3" data-name="issues">
            <g id="issue-7">
                <rect id="issue-bg-14" data-name="issue-bg" class="cls-1" x="688.15" y="354.72" width="273.53" height="39.22" rx="4" ry="4" />
                <g id="issue-title-14" data-name="issue-title">
                    <g id="id-13" data-name="id">
                        <rect class="cls-4" x="695.19" y="362.77" width="125.7" height="11.06" rx="2.1" ry="2.1" />
                    </g>
                    <g id="title-16" data-name="title">
                        <rect class="cls-4" x="695.19" y="377.85" width="33.19" height="8.04" rx="1.83" ry="1.83" />
                    </g>
                </g>
            </g>
            <g id="issue-6-3" data-name="issue-6">
                <rect id="issue-bg-15" data-name="issue-bg" class="cls-1" x="688.15" y="303.32" width="273.53" height="39.22" rx="4" ry="4" />
                <g id="issue-title-15" data-name="issue-title">
                    <g id="id-14" data-name="id">
                        <rect class="cls-4" x="695.19" y="311.36" width="125.7" height="11.06" rx="2.1" ry="2.1" />
                    </g>
                    <g id="title-17" data-name="title">
                        <rect class="cls-4" x="695.19" y="326.45" width="33.19" height="8.04" rx="1.83" ry="1.83" />
                    </g>
                </g>
            </g>
            <g id="issue-5-3" data-name="issue-5">
                <rect id="issue-bg-16" data-name="issue-bg" class="cls-1" x="688.66" y="251.91" width="273.53" height="39.22" rx="4" ry="4" />
                <g id="issue-title-16" data-name="issue-title">
                    <g id="id-15" data-name="id">
                        <rect class="cls-4" x="695.7" y="259.96" width="125.7" height="11.06" rx="2.1" ry="2.1" />
                    </g>
                    <g id="title-18" data-name="title">
                        <rect class="cls-4" x="695.7" y="275.04" width="33.19" height="8.04" rx="1.83" ry="1.83" />
                    </g>
                </g>
            </g>
            <g id="issue-4-3" data-name="issue-4">
                <rect id="issue-bg-17" data-name="issue-bg" class="cls-1" x="688.15" y="200.51" width="273.53" height="39.22" rx="4" ry="4" />
                <g id="issue-title-17" data-name="issue-title">
                    <g id="id-16" data-name="id">
                        <rect class="cls-4" x="695.19" y="208.55" width="125.7" height="11.06" rx="2.1" ry="2.1" />
                    </g>
                    <g id="title-19" data-name="title">
                        <rect class="cls-4" x="695.19" y="223.64" width="33.19" height="8.04" rx="1.83" ry="1.83" />
                    </g>
                </g>
            </g>
            <g id="issue-3-3" data-name="issue-3">
                <rect id="issue-bg-18" data-name="issue-bg" class="cls-1" x="688.15" y="149.1" width="273.53" height="39.22" rx="4" ry="4" />
                <g id="issue-title-18" data-name="issue-title">
                    <g id="id-17" data-name="id">
                        <rect class="cls-4" x="695.19" y="157.15" width="125.7" height="11.06" rx="2.1" ry="2.1" />
                    </g>
                    <g id="title-20" data-name="title">
                        <rect class="cls-4" x="695.19" y="172.23" width="33.19" height="8.04" rx="1.83" ry="1.83" />
                    </g>
                </g>
            </g>
            <g id="issue-2-3" data-name="issue-2">
                <rect id="issue-bg-19" data-name="issue-bg" class="cls-1" x="688.15" y="97.7" width="273.53" height="39.22" rx="4" ry="4" />
                <g id="issue-title-19" data-name="issue-title">
                    <g id="id-18" data-name="id">
                        <rect class="cls-4" x="695.19" y="105.74" width="125.7" height="11.06" rx="2.1" ry="2.1" />
                    </g>
                    <g id="title-21" data-name="title">
                        <rect class="cls-4" x="695.19" y="120.82" width="33.19" height="8.04" rx="1.83" ry="1.83" />
                    </g>
                </g>
            </g>
            <g id="issue-1-3" data-name="issue-1">
                <rect id="issue-bg-20" data-name="issue-bg" class="cls-1" x="688.66" y="46.29" width="273.53" height="39.22" rx="4" ry="4" />
                <g id="issue-title-20" data-name="issue-title">
                    <g id="id-19" data-name="id">
                        <rect class="cls-4" x="695.7" y="54.33" width="125.7" height="11.06" rx="2.1" ry="2.1" />
                    </g>
                    <g id="title-22" data-name="title">
                        <rect class="cls-4" x="695.7" y="69.42" width="33.19" height="8.04" rx="1.83" ry="1.83" />
                    </g>
                </g>
            </g>
        </g>
    </g>
</svg>